<?xml version="1.0" standalone="no"?><!DOCTYPE svg PUBLIC "-//W3C//DTD SVG 1.1//EN" "http://www.w3.org/Graphics/SVG/1.1/DTD/svg11.dtd"><svg t="1500077590371" class="icon" style="" viewBox="0 0 1024 1024" version="1.1" xmlns="http://www.w3.org/2000/svg" p-id="4392" xmlns:xlink="http://www.w3.org/1999/xlink" width="200" height="200"><defs><style type="text/css"></style></defs><path d="M512 960C264.96 960 64 759.04 64 512S264.96 64 512 64s448 200.96 448 448S759.04 960 512 960zM512 128.288C300.416 128.288 128.288 300.416 128.288 512c0 211.552 172.128 383.712 383.712 383.712 211.552 0 383.712-172.16 383.712-383.712C895.712 300.416 723.552 128.288 512 128.288z" p-id="4393" fill="#8a8a8a"></path><path d="M557.056 513.376l138.368-136.864c12.576-12.416 12.672-32.672 0.256-45.248-12.416-12.576-32.704-12.672-45.248-0.256l-138.56 137.024-136.448-136.864c-12.512-12.512-32.736-12.576-45.248-0.064-12.512 12.48-12.544 32.736-0.064 45.248l136.256 136.672-137.376 135.904c-12.576 12.448-12.672 32.672-0.256 45.248 6.272 6.336 14.496 9.504 22.752 9.504 8.128 0 16.256-3.104 22.496-9.248l137.568-136.064 138.688 139.136c6.24 6.272 14.432 9.408 22.656 9.408 8.192 0 16.352-3.136 22.592-9.344 12.512-12.48 12.544-32.704 0.064-45.248L557.056 513.376z" p-id="4394" fill="#8a8a8a"></path></svg>
